<svg width="104" height="52" viewBox="0 0 834 222" fill="none" xmlns="http://www.w3.org/2000/svg">
<g filter="url(#filter0_i_284_385)">
<path d="M203.253 52.5959C324.197 -33.9406 398.107 6.23704 419.944 37.1429C419.944 37.1429 426.103 25.6963 429.183 24.2654C488.311 -25.184 578.123 12.2465 615.638 37.1429C662.391 73.1998 763.626 135.183 794.534 94.6622C825.442 54.1411 781.655 25.6963 755.899 16.539C778.072 11.0446 794.534 19.973 811.331 31.1334C828.129 42.2939 857.525 109.257 800.413 171.068C754.723 220.518 677.229 224.868 644.194 220.861C625.716 219.43 574.987 211.074 519.891 189.097C464.794 167.119 430.302 123.279 419.944 104.106C404.826 127.285 361.03 171.491 317.478 191.672C254.486 220.861 191.598 222.025 164.618 220.861C46.1927 215.752 5.59925 140.163 0 94.6622C4.70337 23.922 57.3923 13.105 83.1489 16.539C30.7399 28.9013 31.6357 68.0488 38.6348 86.0772C43.1142 110.974 82.309 139.132 203.253 52.5959Z" fill="#F3EFEB"/>
</g>
<defs>
<filter id="filter0_i_284_385" x="0" y="0" width="844" height="232" filterUnits="userSpaceOnUse" color-interpolation-filters="sRGB">
<feFlood flood-opacity="0" result="BackgroundImageFix"/>
<feBlend mode="normal" in="SourceGraphic" in2="BackgroundImageFix" result="shape"/>
<feColorMatrix in="SourceAlpha" type="matrix" values="0 0 0 0 0 0 0 0 0 0 0 0 0 0 0 0 0 0 127 0" result="hardAlpha"/>
<feOffset dx="10" dy="10"/>
<feGaussianBlur stdDeviation="25"/>
<feComposite in2="hardAlpha" operator="arithmetic" k2="-1" k3="1"/>
<feColorMatrix type="matrix" values="0 0 0 0 0.952941 0 0 0 0 0.937255 0 0 0 0 0.921569 0 0 0 1 0"/>
<feBlend mode="normal" in2="shape" result="effect1_innerShadow_284_385"/>
</filter>
</defs>
</svg>
